<mxfile host="app.diagrams.net" modified="2023-07-11T07:09:59.084Z" agent="Mozilla/5.0 (Macintosh; Intel Mac OS X 10_15_7) AppleWebKit/537.36 (KHTML, like Gecko) Chrome/111.0.0.0 Safari/537.36" version="21.5.2" etag="0CmPG3ccx7YLbQ1u7MMP" type="github">
  <diagram name="第 1 页" id="Lseqx7JnAaP2iNhcVw6w">
    <mxGraphModel>
      <root>
        <mxCell id="0" />
        <mxCell id="1" parent="0" />
      </root>
    </mxGraphModel>
  </diagram>
</mxfile>
